<svg width="200" height="120" viewBox="0 0 200 120" xmlns="http://www.w3.org/2000/svg">
  <!-- Bench -->
  <rect x="40" y="90" width="120" height="15" rx="2" fill="#555" />
  <rect x="50" y="105" width="10" height="15" fill="#444" />
  <rect x="140" y="105" width="10" height="15" fill="#444" />
  
  <!-- Weight bar -->
  <rect x="30" y="65" width="140" height="8" rx="4" fill="#888" />
  <circle cx="35" cy="69" r="15" fill="#555" />
  <circle cx="165" cy="69" r="15" fill="#555" />
  
  <!-- Person -->
  <ellipse cx="100" cy="85" rx="35" ry="15" fill="#cc7722" /> <!-- Body -->
  <circle cx="100" cy="50" r="15" fill="#f4a460" /> <!-- Head -->
  
  <!-- Arms -->
  <path d="M75 80 Q 60 60 50 69" stroke="#cc7722" stroke-width="10" fill="none" />
  <path d="M125 80 Q 140 60 150 69" stroke="#cc7722" stroke-width="10" fill="none" />
  
  <!-- Shorts -->
  <rect x="80" y="90" width="40" height="15" rx="5" fill="#013369" />
  
  <!-- Face details -->
  <circle cx="95" cy="47" r="2" fill="#000" /> <!-- Left eye -->
  <circle cx="105" cy="47" r="2" fill="#000" /> <!-- Right eye -->
  <path d="M95 55 Q 100 57 105 55" stroke="#000" stroke-width="1" fill="none" /> <!-- Smile -->
</svg>
